<svg xmlns="http://www.w3.org/2000/svg" version="1.1">
	<polygon points="0,0 0,120 150,120 150,0" fill="black" />
	<polygon points="70,7 32,24 121,49" fill="rgba(210,146,74,0.996078431373)" />
	<polygon points="118,48 43,8 81,7" fill="rgba(209,114,52,0.650980392157)" />
	<polygon points="54,27 101,45 77,16" fill="rgba(255,242,175,0.596078431373)" />
	<polygon points="104,106 88,118 131,37" fill="rgba(255,100,92,0.282352941176)" />
	<polygon points="63,92 92,11 119,44" fill="rgba(102,35,0,0.4)" />
	<polygon points="117,93 20,57 147,18" fill="rgba(0,0,0,0.996078431373)" />
	<polygon points="70,10 57,9 81,92" fill="rgba(243,212,152,0.988235294118)" />
	<polygon points="50,34 80,111 47,56" fill="rgba(255,172,128,0.596078431373)" />
	<polygon points="93,117 100,109 68,97" fill="rgba(255,117,80,0.996078431373)" />
	<polygon points="63,96 107,52 43,25" fill="rgba(255,190,104,0.588235294118)" />
	<polygon points="67,3 43,31 96,114" fill="rgba(255,255,248,0.0901960784314)" />
	<polygon points="84,106 96,20 115,43" fill="rgba(208,78,69,0.250980392157)" />
	<polygon points="53,70 88,98 94,53" fill="rgba(255,180,114,0.372549019608)" />
	<polygon points="113,43 77,109 67,53" fill="rgba(247,115,57,0.439215686275)" />
	<polygon points="54,34 65,100 85,93" fill="rgba(234,190,144,0.866666666667)" />
	<polygon points="72,11 48,27 82,45" fill="rgba(250,226,194,0.513725490196)" />
	<polygon points="7,119 128,120 59,93" fill="rgba(0,0,0,0.674509803922)" />
	<polygon points="109,49 84,45 64,87" fill="rgba(235,205,174,0.862745098039)" />
	<polygon points="58,28 47,30 105,54" fill="rgba(254,223,177,0.764705882353)" />
	<polygon points="70,39 141,71 134,33" fill="rgba(0,0,0,0.294117647059)" />
	<polygon points="58,84 78,65 76,110" fill="rgba(254,202,143,0.262745098039)" />
	<polygon points="57,50 70,42 73,73" fill="rgba(253,238,209,0.972549019608)" />
	<polygon points="105,56 32,31 110,43" fill="rgba(193,60,18,0.227450980392)" />
	<polygon points="150,0 140,26 0,0" fill="rgba(0,0,0,0.549019607843)" />
	<polygon points="107,39 61,91 85,117" fill="rgba(255,185,85,0.207843137255)" />
	<polygon points="100,18 106,80 46,1" fill="rgba(253,159,106,0.137254901961)" />
	<polygon points="82,36 82,79 76,38" fill="rgba(57,0,0,0.788235294118)" />
	<polygon points="36,68 53,3 29,13" fill="rgba(0,0,0,1.0)" />
	<polygon points="88,84 58,85 43,36" fill="rgba(254,251,204,0.443137254902)" />
	<polygon points="9,47 68,43 42,26" fill="rgba(0,0,0,0.862745098039)" />
	<polygon points="137,104 1,72 109,75" fill="rgba(0,0,0,0.16862745098)" />
	<polygon points="80,98 105,81 51,0" fill="rgba(253,255,189,0.105882352941)" />
	<polygon points="84,100 131,55 129,113" fill="rgba(0,0,0,0.545098039216)" />
	<polygon points="97,91 61,89 104,69" fill="rgba(102,34,21,0.403921568627)" />
	<polygon points="92,117 61,91 69,103" fill="rgba(205,101,60,0.556862745098)" />
	<polygon points="48,4 47,59 106,22" fill="rgba(255,191,140,0.109803921569)" />
	<polygon points="59,78 57,80 89,82" fill="rgba(135,72,48,0.992156862745)" />
	<polygon points="56,56 84,47 84,72" fill="rgba(210,114,0,0.164705882353)" />
	<polygon points="50,62 75,86 47,26" fill="rgba(255,208,169,0.41568627451)" />
	<polygon points="70,74 84,81 76,42" fill="rgba(46,0,11,0.843137254902)" />
	<polygon points="122,57 98,72 108,31" fill="rgba(29,10,16,0.317647058824)" />
	<polygon points="63,79 83,79 97,60" fill="rgba(235,208,154,0.721568627451)" />
	<polygon points="95,71 106,50 47,41" fill="rgba(241,192,115,0.352941176471)" />
	<polygon points="66,70 114,47 91,116" fill="rgba(183,32,28,0.0980392156863)" />
	<polygon points="76,38 85,99 72,60" fill="rgba(159,68,35,0.537254901961)" />
	<polygon points="65,35 80,91 60,90" fill="rgba(237,120,48,0.270588235294)" />
	<polygon points="81,41 74,100 93,91" fill="rgba(240,170,88,0.247058823529)" />
	<polygon points="47,51 68,98 51,67" fill="rgba(207,153,102,0.56862745098)" />
	<polygon points="86,83 73,39 75,89" fill="rgba(91,0,0,0.192156862745)" />
	<polygon points="124,52 102,78 127,39" fill="rgba(207,101,92,0.133333333333)" />
</svg>